<svg xmlns="http://www.w3.org/2000/svg" version="1.1" xmlns:xlink="http://www.w3.org/1999/xlink" xmlns:svgjs="http://svgjs.dev/svgjs" width="1440" height="560" preserveAspectRatio="none" viewBox="0 0 1440 560"><g mask="url(&quot;#SvgjsMask1010&quot;)" fill="none"><path d="M-72.5 392.06L-72.5 392.06" stroke="rgba(40, 180, 99, 1)" stroke-width="1.5"></path><path d="M-72.5 392.06L-104.1 522.23" stroke="rgba(40, 180, 99, 1)" stroke-width="1.5"></path><path d="M-104.1 522.23L-104.1 522.23" stroke="rgba(40, 180, 99, 1)" stroke-width="1.5"></path><path d="M-104.1 522.23L56.89 499.19" stroke="rgba(40, 180, 99, 1)" stroke-width="1.5"></path><path d="M-104.1 522.23L-69.35 705.59" stroke="rgba(40, 180, 99, 1)" stroke-width="1.5"></path><path d="M-104.1 522.23L70.59 671.34" stroke="rgba(40, 180, 99, 1)" stroke-width="1.5"></path><path d="M-104.1 522.23L87.42 392.98" stroke="rgba(40, 180, 99, 1)" stroke-width="1.5"></path><path d="M-69.35 705.59L-69.35 705.59" stroke="rgba(40, 180, 99, 1)" stroke-width="1.5"></path><path d="M-69.35 705.59L70.59 671.34" stroke="rgba(40, 180, 99, 1)" stroke-width="1.5"></path><path d="M-69.35 705.59L56.89 499.19" stroke="rgba(40, 180, 99, 1)" stroke-width="1.5"></path><path d="M-69.35 705.59L-72.5 392.06" stroke="rgba(40, 180, 99, 1)" stroke-width="1.5"></path><path d="M-69.35 705.59L254.35 657.05" stroke="rgba(40, 180, 99, 1)" stroke-width="1.5"></path><path d="M-69.35 705.59L87.42 392.98" stroke="rgba(40, 180, 99, 1)" stroke-width="1.5"></path><path d="M87.42 392.98L87.42 392.98" stroke="rgba(40, 180, 99, 1)" stroke-width="1.5"></path><path d="M87.42 392.98L56.89 499.19" stroke="rgba(40, 180, 99, 1)" stroke-width="1.5"></path><path d="M87.42 392.98L243.49 407.35" stroke="rgba(40, 180, 99, 1)" stroke-width="1.5"></path><path d="M56.89 499.19L56.89 499.19" stroke="rgba(40, 180, 99, 1)" stroke-width="1.5"></path><path d="M56.89 499.19L-72.5 392.06" stroke="rgba(40, 180, 99, 1)" stroke-width="1.5"></path><path d="M56.89 499.19L70.59 671.34" stroke="rgba(40, 180, 99, 1)" stroke-width="1.5"></path><path d="M56.89 499.19L243.49 407.35" stroke="rgba(40, 180, 99, 1)" stroke-width="1.5"></path><path d="M70.59 671.34L70.59 671.34" stroke="rgba(40, 180, 99, 1)" stroke-width="1.5"></path><path d="M70.59 671.34L254.35 657.05" stroke="rgba(40, 180, 99, 1)" stroke-width="1.5"></path><path d="M243.49 407.35L243.49 407.35" stroke="rgba(40, 180, 99, 1)" stroke-width="1.5"></path><path d="M243.49 407.35L411.4 361.74" stroke="rgba(40, 180, 99, 1)" stroke-width="1.5"></path><path d="M243.49 407.35L396.85 505.93" stroke="rgba(40, 180, 99, 1)" stroke-width="1.5"></path><path d="M254.35 657.05L254.35 657.05" stroke="rgba(40, 180, 99, 1)" stroke-width="1.5"></path><path d="M254.35 657.05L384.72 692.16" stroke="rgba(40, 180, 99, 1)" stroke-width="1.5"></path><path d="M254.35 657.05L396.85 505.93" stroke="rgba(40, 180, 99, 1)" stroke-width="1.5"></path><path d="M254.35 657.05L490.46 639.58" stroke="rgba(40, 180, 99, 1)" stroke-width="1.5"></path><path d="M254.35 657.05L243.49 407.35" stroke="rgba(40, 180, 99, 1)" stroke-width="1.5"></path><path d="M411.4 361.74L411.4 361.74" stroke="rgba(40, 180, 99, 1)" stroke-width="1.5"></path><path d="M411.4 361.74L396.85 505.93" stroke="rgba(40, 180, 99, 1)" stroke-width="1.5"></path><path d="M411.4 361.74L549.89 505.78" stroke="rgba(40, 180, 99, 1)" stroke-width="1.5"></path><path d="M396.85 505.93L396.85 505.93" stroke="rgba(40, 180, 99, 1)" stroke-width="1.5"></path><path d="M396.85 505.93L549.89 505.78" stroke="rgba(40, 180, 99, 1)" stroke-width="1.5"></path><path d="M384.72 692.16L384.72 692.16" stroke="rgba(40, 180, 99, 1)" stroke-width="1.5"></path><path d="M384.72 692.16L490.46 639.58" stroke="rgba(40, 180, 99, 1)" stroke-width="1.5"></path><path d="M384.72 692.16L396.85 505.93" stroke="rgba(40, 180, 99, 1)" stroke-width="1.5"></path><path d="M384.72 692.16L549.89 505.78" stroke="rgba(40, 180, 99, 1)" stroke-width="1.5"></path><path d="M384.72 692.16L70.59 671.34" stroke="rgba(40, 180, 99, 1)" stroke-width="1.5"></path><path d="M549.89 505.78L549.89 505.78" stroke="rgba(40, 180, 99, 1)" stroke-width="1.5"></path><path d="M549.89 505.78L673.78 504.98" stroke="rgba(40, 180, 99, 1)" stroke-width="1.5"></path><path d="M549.89 505.78L490.46 639.58" stroke="rgba(40, 180, 99, 1)" stroke-width="1.5"></path><path d="M549.89 505.78L644.54 381.98" stroke="rgba(40, 180, 99, 1)" stroke-width="1.5"></path><path d="M490.46 639.58L490.46 639.58" stroke="rgba(40, 180, 99, 1)" stroke-width="1.5"></path><path d="M490.46 639.58L396.85 505.93" stroke="rgba(40, 180, 99, 1)" stroke-width="1.5"></path><path d="M688.84 250.95L688.84 250.95" stroke="rgba(40, 180, 99, 1)" stroke-width="1.5"></path><path d="M688.84 250.95L644.54 381.98" stroke="rgba(40, 180, 99, 1)" stroke-width="1.5"></path><path d="M688.84 250.95L829.42 215.42" stroke="rgba(40, 180, 99, 1)" stroke-width="1.5"></path><path d="M688.84 250.95L822.79 108.11" stroke="rgba(40, 180, 99, 1)" stroke-width="1.5"></path><path d="M644.54 381.98L644.54 381.98" stroke="rgba(40, 180, 99, 1)" stroke-width="1.5"></path><path d="M644.54 381.98L673.78 504.98" stroke="rgba(40, 180, 99, 1)" stroke-width="1.5"></path><path d="M673.78 504.98L673.78 504.98" stroke="rgba(40, 180, 99, 1)" stroke-width="1.5"></path><path d="M709.58 683.37L709.58 683.37" stroke="rgba(40, 180, 99, 1)" stroke-width="1.5"></path><path d="M709.58 683.37L834.93 639" stroke="rgba(40, 180, 99, 1)" stroke-width="1.5"></path><path d="M709.58 683.37L810.44 551.15" stroke="rgba(40, 180, 99, 1)" stroke-width="1.5"></path><path d="M709.58 683.37L673.78 504.98" stroke="rgba(40, 180, 99, 1)" stroke-width="1.5"></path><path d="M709.58 683.37L490.46 639.58" stroke="rgba(40, 180, 99, 1)" stroke-width="1.5"></path><path d="M709.58 683.37L549.89 505.78" stroke="rgba(40, 180, 99, 1)" stroke-width="1.5"></path><path d="M709.58 683.37L1009.12 647.47" stroke="rgba(40, 180, 99, 1)" stroke-width="1.5"></path><path d="M822.79 108.11L822.79 108.11" stroke="rgba(40, 180, 99, 1)" stroke-width="1.5"></path><path d="M822.79 108.11L829.42 215.42" stroke="rgba(40, 180, 99, 1)" stroke-width="1.5"></path><path d="M822.79 108.11L959.04 67.92" stroke="rgba(40, 180, 99, 1)" stroke-width="1.5"></path><path d="M822.79 108.11L979.33 223.23" stroke="rgba(40, 180, 99, 1)" stroke-width="1.5"></path><path d="M829.42 215.42L829.42 215.42" stroke="rgba(40, 180, 99, 1)" stroke-width="1.5"></path><path d="M829.42 215.42L979.33 223.23" stroke="rgba(40, 180, 99, 1)" stroke-width="1.5"></path><path d="M829.42 215.42L859.42 405.45" stroke="rgba(40, 180, 99, 1)" stroke-width="1.5"></path><path d="M859.42 405.45L859.42 405.45" stroke="rgba(40, 180, 99, 1)" stroke-width="1.5"></path><path d="M859.42 405.45L940.32 373.67" stroke="rgba(40, 180, 99, 1)" stroke-width="1.5"></path><path d="M859.42 405.45L810.44 551.15" stroke="rgba(40, 180, 99, 1)" stroke-width="1.5"></path><path d="M810.44 551.15L810.44 551.15" stroke="rgba(40, 180, 99, 1)" stroke-width="1.5"></path><path d="M810.44 551.15L834.93 639" stroke="rgba(40, 180, 99, 1)" stroke-width="1.5"></path><path d="M810.44 551.15L673.78 504.98" stroke="rgba(40, 180, 99, 1)" stroke-width="1.5"></path><path d="M834.93 639L834.93 639" stroke="rgba(40, 180, 99, 1)" stroke-width="1.5"></path><path d="M834.93 639L1009.12 647.47" stroke="rgba(40, 180, 99, 1)" stroke-width="1.5"></path><path d="M834.93 639L975.86 511.15" stroke="rgba(40, 180, 99, 1)" stroke-width="1.5"></path><path d="M834.93 639L673.78 504.98" stroke="rgba(40, 180, 99, 1)" stroke-width="1.5"></path><path d="M1009.96 -61.01L1009.96 -61.01" stroke="rgba(40, 180, 99, 1)" stroke-width="1.5"></path><path d="M1009.96 -61.01L1112.63 -77.55" stroke="rgba(40, 180, 99, 1)" stroke-width="1.5"></path><path d="M1009.96 -61.01L959.04 67.92" stroke="rgba(40, 180, 99, 1)" stroke-width="1.5"></path><path d="M1009.96 -61.01L1090.08 74.07" stroke="rgba(40, 180, 99, 1)" stroke-width="1.5"></path><path d="M1009.96 -61.01L822.79 108.11" stroke="rgba(40, 180, 99, 1)" stroke-width="1.5"></path><path d="M959.04 67.92L959.04 67.92" stroke="rgba(40, 180, 99, 1)" stroke-width="1.5"></path><path d="M959.04 67.92L1090.08 74.07" stroke="rgba(40, 180, 99, 1)" stroke-width="1.5"></path><path d="M959.04 67.92L979.33 223.23" stroke="rgba(40, 180, 99, 1)" stroke-width="1.5"></path><path d="M959.04 67.92L829.42 215.42" stroke="rgba(40, 180, 99, 1)" stroke-width="1.5"></path><path d="M959.04 67.92L1112.63 -77.55" stroke="rgba(40, 180, 99, 1)" stroke-width="1.5"></path><path d="M979.33 223.23L979.33 223.23" stroke="rgba(40, 180, 99, 1)" stroke-width="1.5"></path><path d="M979.33 223.23L940.32 373.67" stroke="rgba(40, 180, 99, 1)" stroke-width="1.5"></path><path d="M979.33 223.23L1145.97 209.59" stroke="rgba(40, 180, 99, 1)" stroke-width="1.5"></path><path d="M979.33 223.23L1090.08 74.07" stroke="rgba(40, 180, 99, 1)" stroke-width="1.5"></path><path d="M940.32 373.67L940.32 373.67" stroke="rgba(40, 180, 99, 1)" stroke-width="1.5"></path><path d="M940.32 373.67L975.86 511.15" stroke="rgba(40, 180, 99, 1)" stroke-width="1.5"></path><path d="M940.32 373.67L1099.03 379.37" stroke="rgba(40, 180, 99, 1)" stroke-width="1.5"></path><path d="M940.32 373.67L829.42 215.42" stroke="rgba(40, 180, 99, 1)" stroke-width="1.5"></path><path d="M975.86 511.15L975.86 511.15" stroke="rgba(40, 180, 99, 1)" stroke-width="1.5"></path><path d="M975.86 511.15L1009.12 647.47" stroke="rgba(40, 180, 99, 1)" stroke-width="1.5"></path><path d="M975.86 511.15L859.42 405.45" stroke="rgba(40, 180, 99, 1)" stroke-width="1.5"></path><path d="M1009.12 647.47L1009.12 647.47" stroke="rgba(40, 180, 99, 1)" stroke-width="1.5"></path><path d="M1009.12 647.47L1130.32 693.21" stroke="rgba(40, 180, 99, 1)" stroke-width="1.5"></path><path d="M1009.12 647.47L1152.8 556.68" stroke="rgba(40, 180, 99, 1)" stroke-width="1.5"></path><path d="M1112.63 -77.55L1112.63 -77.55" stroke="rgba(40, 180, 99, 1)" stroke-width="1.5"></path><path d="M1112.63 -77.55L1090.08 74.07" stroke="rgba(40, 180, 99, 1)" stroke-width="1.5"></path><path d="M1112.63 -77.55L1306.02 -105.03" stroke="rgba(40, 180, 99, 1)" stroke-width="1.5"></path><path d="M1112.63 -77.55L1300.25 52.57" stroke="rgba(40, 180, 99, 1)" stroke-width="1.5"></path><path d="M1112.63 -77.55L1145.97 209.59" stroke="rgba(40, 180, 99, 1)" stroke-width="1.5"></path><path d="M1090.08 74.07L1090.08 74.07" stroke="rgba(40, 180, 99, 1)" stroke-width="1.5"></path><path d="M1090.08 74.07L1145.97 209.59" stroke="rgba(40, 180, 99, 1)" stroke-width="1.5"></path><path d="M1090.08 74.07L1300.25 52.57" stroke="rgba(40, 180, 99, 1)" stroke-width="1.5"></path><path d="M1145.97 209.59L1145.97 209.59" stroke="rgba(40, 180, 99, 1)" stroke-width="1.5"></path><path d="M1145.97 209.59L1262.45 235.57" stroke="rgba(40, 180, 99, 1)" stroke-width="1.5"></path><path d="M1099.03 379.37L1099.03 379.37" stroke="rgba(40, 180, 99, 1)" stroke-width="1.5"></path><path d="M1099.03 379.37L1265.94 386.09" stroke="rgba(40, 180, 99, 1)" stroke-width="1.5"></path><path d="M1099.03 379.37L1145.97 209.59" stroke="rgba(40, 180, 99, 1)" stroke-width="1.5"></path><path d="M1099.03 379.37L975.86 511.15" stroke="rgba(40, 180, 99, 1)" stroke-width="1.5"></path><path d="M1152.8 556.68L1152.8 556.68" stroke="rgba(40, 180, 99, 1)" stroke-width="1.5"></path><path d="M1152.8 556.68L1130.32 693.21" stroke="rgba(40, 180, 99, 1)" stroke-width="1.5"></path><path d="M1152.8 556.68L1294.33 537.15" stroke="rgba(40, 180, 99, 1)" stroke-width="1.5"></path><path d="M1152.8 556.68L1238.92 712.12" stroke="rgba(40, 180, 99, 1)" stroke-width="1.5"></path><path d="M1152.8 556.68L975.86 511.15" stroke="rgba(40, 180, 99, 1)" stroke-width="1.5"></path><path d="M1152.8 556.68L1099.03 379.37" stroke="rgba(40, 180, 99, 1)" stroke-width="1.5"></path><path d="M1130.32 693.21L1130.32 693.21" stroke="rgba(40, 180, 99, 1)" stroke-width="1.5"></path><path d="M1130.32 693.21L1238.92 712.12" stroke="rgba(40, 180, 99, 1)" stroke-width="1.5"></path><path d="M1130.32 693.21L1294.33 537.15" stroke="rgba(40, 180, 99, 1)" stroke-width="1.5"></path><path d="M1130.32 693.21L975.86 511.15" stroke="rgba(40, 180, 99, 1)" stroke-width="1.5"></path><path d="M1306.02 -105.03L1306.02 -105.03" stroke="rgba(40, 180, 99, 1)" stroke-width="1.5"></path><path d="M1306.02 -105.03L1425.08 -85.27" stroke="rgba(40, 180, 99, 1)" stroke-width="1.5"></path><path d="M1306.02 -105.03L1300.25 52.57" stroke="rgba(40, 180, 99, 1)" stroke-width="1.5"></path><path d="M1300.25 52.57L1300.25 52.57" stroke="rgba(40, 180, 99, 1)" stroke-width="1.5"></path><path d="M1300.25 52.57L1389.69 106.09" stroke="rgba(40, 180, 99, 1)" stroke-width="1.5"></path><path d="M1262.45 235.57L1262.45 235.57" stroke="rgba(40, 180, 99, 1)" stroke-width="1.5"></path><path d="M1262.45 235.57L1392.01 194.5" stroke="rgba(40, 180, 99, 1)" stroke-width="1.5"></path><path d="M1265.94 386.09L1265.94 386.09" stroke="rgba(40, 180, 99, 1)" stroke-width="1.5"></path><path d="M1265.94 386.09L1404.78 354.43" stroke="rgba(40, 180, 99, 1)" stroke-width="1.5"></path><path d="M1265.94 386.09L1262.45 235.57" stroke="rgba(40, 180, 99, 1)" stroke-width="1.5"></path><path d="M1265.94 386.09L1294.33 537.15" stroke="rgba(40, 180, 99, 1)" stroke-width="1.5"></path><path d="M1294.33 537.15L1294.33 537.15" stroke="rgba(40, 180, 99, 1)" stroke-width="1.5"></path><path d="M1294.33 537.15L1426.18 535.45" stroke="rgba(40, 180, 99, 1)" stroke-width="1.5"></path><path d="M1238.92 712.12L1238.92 712.12" stroke="rgba(40, 180, 99, 1)" stroke-width="1.5"></path><path d="M1238.92 712.12L1404.24 709.11" stroke="rgba(40, 180, 99, 1)" stroke-width="1.5"></path><path d="M1238.92 712.12L1294.33 537.15" stroke="rgba(40, 180, 99, 1)" stroke-width="1.5"></path><path d="M1238.92 712.12L1009.12 647.47" stroke="rgba(40, 180, 99, 1)" stroke-width="1.5"></path><path d="M1238.92 712.12L1426.18 535.45" stroke="rgba(40, 180, 99, 1)" stroke-width="1.5"></path><path d="M1425.08 -85.27L1425.08 -85.27" stroke="rgba(40, 180, 99, 1)" stroke-width="1.5"></path><path d="M1425.08 -85.27L1578.42 -65.01" stroke="rgba(40, 180, 99, 1)" stroke-width="1.5"></path><path d="M1425.08 -85.27L1300.25 52.57" stroke="rgba(40, 180, 99, 1)" stroke-width="1.5"></path><path d="M1389.69 106.09L1389.69 106.09" stroke="rgba(40, 180, 99, 1)" stroke-width="1.5"></path><path d="M1389.69 106.09L1392.01 194.5" stroke="rgba(40, 180, 99, 1)" stroke-width="1.5"></path><path d="M1389.69 106.09L1262.45 235.57" stroke="rgba(40, 180, 99, 1)" stroke-width="1.5"></path><path d="M1392.01 194.5L1392.01 194.5" stroke="rgba(40, 180, 99, 1)" stroke-width="1.5"></path><path d="M1392.01 194.5L1543.01 223.33" stroke="rgba(40, 180, 99, 1)" stroke-width="1.5"></path><path d="M1392.01 194.5L1404.78 354.43" stroke="rgba(40, 180, 99, 1)" stroke-width="1.5"></path><path d="M1392.01 194.5L1300.25 52.57" stroke="rgba(40, 180, 99, 1)" stroke-width="1.5"></path><path d="M1404.78 354.43L1404.78 354.43" stroke="rgba(40, 180, 99, 1)" stroke-width="1.5"></path><path d="M1404.78 354.43L1546.87 362.42" stroke="rgba(40, 180, 99, 1)" stroke-width="1.5"></path><path d="M1404.78 354.43L1426.18 535.45" stroke="rgba(40, 180, 99, 1)" stroke-width="1.5"></path><path d="M1404.78 354.43L1262.45 235.57" stroke="rgba(40, 180, 99, 1)" stroke-width="1.5"></path><path d="M1404.78 354.43L1543.01 223.33" stroke="rgba(40, 180, 99, 1)" stroke-width="1.5"></path><path d="M1426.18 535.45L1426.18 535.45" stroke="rgba(40, 180, 99, 1)" stroke-width="1.5"></path><path d="M1426.18 535.45L1596.28 516.73" stroke="rgba(40, 180, 99, 1)" stroke-width="1.5"></path><path d="M1404.24 709.11L1404.24 709.11" stroke="rgba(40, 180, 99, 1)" stroke-width="1.5"></path><path d="M1404.24 709.11L1550 702.16" stroke="rgba(40, 180, 99, 1)" stroke-width="1.5"></path><path d="M1404.24 709.11L1426.18 535.45" stroke="rgba(40, 180, 99, 1)" stroke-width="1.5"></path><path d="M1404.24 709.11L1294.33 537.15" stroke="rgba(40, 180, 99, 1)" stroke-width="1.5"></path><path d="M1404.24 709.11L1596.28 516.73" stroke="rgba(40, 180, 99, 1)" stroke-width="1.5"></path><path d="M1578.42 -65.01L1578.42 -65.01" stroke="rgba(40, 180, 99, 1)" stroke-width="1.5"></path><path d="M1578.42 -65.01L1591.26 40.05" stroke="rgba(40, 180, 99, 1)" stroke-width="1.5"></path><path d="M1578.42 -65.01L1389.69 106.09" stroke="rgba(40, 180, 99, 1)" stroke-width="1.5"></path><path d="M1578.42 -65.01L1306.02 -105.03" stroke="rgba(40, 180, 99, 1)" stroke-width="1.5"></path><path d="M1578.42 -65.01L1543.01 223.33" stroke="rgba(40, 180, 99, 1)" stroke-width="1.5"></path><path d="M1578.42 -65.01L1300.25 52.57" stroke="rgba(40, 180, 99, 1)" stroke-width="1.5"></path><path d="M1591.26 40.05L1591.26 40.05" stroke="rgba(40, 180, 99, 1)" stroke-width="1.5"></path><path d="M1591.26 40.05L1543.01 223.33" stroke="rgba(40, 180, 99, 1)" stroke-width="1.5"></path><path d="M1591.26 40.05L1425.08 -85.27" stroke="rgba(40, 180, 99, 1)" stroke-width="1.5"></path><path d="M1591.26 40.05L1389.69 106.09" stroke="rgba(40, 180, 99, 1)" stroke-width="1.5"></path><path d="M1591.26 40.05L1392.01 194.5" stroke="rgba(40, 180, 99, 1)" stroke-width="1.5"></path><path d="M1543.01 223.33L1543.01 223.33" stroke="rgba(40, 180, 99, 1)" stroke-width="1.5"></path><path d="M1543.01 223.33L1546.87 362.42" stroke="rgba(40, 180, 99, 1)" stroke-width="1.5"></path><path d="M1546.87 362.42L1546.87 362.42" stroke="rgba(40, 180, 99, 1)" stroke-width="1.5"></path><path d="M1546.87 362.42L1596.28 516.73" stroke="rgba(40, 180, 99, 1)" stroke-width="1.5"></path><path d="M1596.28 516.73L1596.28 516.73" stroke="rgba(40, 180, 99, 1)" stroke-width="1.5"></path><path d="M1550 702.16L1550 702.16" stroke="rgba(40, 180, 99, 1)" stroke-width="1.5"></path><path d="M1550 702.16L1596.28 516.73" stroke="rgba(40, 180, 99, 1)" stroke-width="1.5"></path><circle r="5" cx="-72.5" cy="392.06" fill="rgba(40, 180, 99, 1)"></circle><circle r="5" cx="-104.1" cy="522.23" fill="rgba(40, 180, 99, 1)"></circle><circle r="5" cx="-69.35" cy="705.59" fill="rgba(40, 180, 99, 1)"></circle><circle r="5" cx="87.42" cy="392.98" fill="rgba(40, 180, 99, 1)"></circle><circle r="5" cx="56.89" cy="499.19" fill="rgba(40, 180, 99, 1)"></circle><circle r="5" cx="70.59" cy="671.34" fill="rgba(40, 180, 99, 1)"></circle><circle r="5" cx="243.49" cy="407.35" fill="rgba(40, 180, 99, 1)"></circle><circle r="5" cx="254.35" cy="657.05" fill="rgba(40, 180, 99, 1)"></circle><circle r="5" cx="411.4" cy="361.74" fill="rgba(40, 180, 99, 1)"></circle><circle r="5" cx="396.85" cy="505.93" fill="rgba(40, 180, 99, 1)"></circle><circle r="5" cx="384.72" cy="692.16" fill="rgba(40, 180, 99, 1)"></circle><circle r="5" cx="549.89" cy="505.78" fill="rgba(40, 180, 99, 1)"></circle><circle r="5" cx="490.46" cy="639.58" fill="rgba(40, 180, 99, 1)"></circle><circle r="5" cx="688.84" cy="250.95" fill="rgba(40, 180, 99, 1)"></circle><circle r="5" cx="644.54" cy="381.98" fill="rgba(40, 180, 99, 1)"></circle><circle r="5" cx="673.78" cy="504.98" fill="rgba(40, 180, 99, 1)"></circle><circle r="5" cx="709.58" cy="683.37" fill="rgba(40, 180, 99, 1)"></circle><circle r="5" cx="822.79" cy="108.11" fill="rgba(40, 180, 99, 1)"></circle><circle r="5" cx="829.42" cy="215.42" fill="rgba(40, 180, 99, 1)"></circle><circle r="5" cx="859.42" cy="405.45" fill="rgba(40, 180, 99, 1)"></circle><circle r="5" cx="810.44" cy="551.15" fill="rgba(40, 180, 99, 1)"></circle><circle r="5" cx="834.93" cy="639" fill="rgba(40, 180, 99, 1)"></circle><circle r="5" cx="1009.96" cy="-61.01" fill="rgba(40, 180, 99, 1)"></circle><circle r="5" cx="959.04" cy="67.92" fill="rgba(40, 180, 99, 1)"></circle><circle r="5" cx="979.33" cy="223.23" fill="rgba(40, 180, 99, 1)"></circle><circle r="5" cx="940.32" cy="373.67" fill="rgba(40, 180, 99, 1)"></circle><circle r="5" cx="975.86" cy="511.15" fill="rgba(40, 180, 99, 1)"></circle><circle r="5" cx="1009.12" cy="647.47" fill="rgba(40, 180, 99, 1)"></circle><circle r="5" cx="1112.63" cy="-77.55" fill="rgba(40, 180, 99, 1)"></circle><circle r="5" cx="1090.08" cy="74.07" fill="rgba(40, 180, 99, 1)"></circle><circle r="5" cx="1145.97" cy="209.59" fill="rgba(40, 180, 99, 1)"></circle><circle r="5" cx="1099.03" cy="379.37" fill="rgba(40, 180, 99, 1)"></circle><circle r="5" cx="1152.8" cy="556.68" fill="rgba(40, 180, 99, 1)"></circle><circle r="5" cx="1130.32" cy="693.21" fill="rgba(40, 180, 99, 1)"></circle><circle r="5" cx="1306.02" cy="-105.03" fill="rgba(40, 180, 99, 1)"></circle><circle r="5" cx="1300.25" cy="52.57" fill="rgba(40, 180, 99, 1)"></circle><circle r="5" cx="1262.45" cy="235.57" fill="rgba(40, 180, 99, 1)"></circle><circle r="5" cx="1265.94" cy="386.09" fill="rgba(40, 180, 99, 1)"></circle><circle r="5" cx="1294.33" cy="537.15" fill="rgba(40, 180, 99, 1)"></circle><circle r="5" cx="1238.92" cy="712.12" fill="rgba(40, 180, 99, 1)"></circle><circle r="5" cx="1425.08" cy="-85.27" fill="rgba(40, 180, 99, 1)"></circle><circle r="5" cx="1389.69" cy="106.09" fill="rgba(40, 180, 99, 1)"></circle><circle r="5" cx="1392.01" cy="194.5" fill="rgba(40, 180, 99, 1)"></circle><circle r="5" cx="1404.78" cy="354.43" fill="rgba(40, 180, 99, 1)"></circle><circle r="5" cx="1426.18" cy="535.45" fill="rgba(40, 180, 99, 1)"></circle><circle r="5" cx="1404.24" cy="709.11" fill="rgba(40, 180, 99, 1)"></circle><circle r="5" cx="1578.42" cy="-65.01" fill="rgba(40, 180, 99, 1)"></circle><circle r="5" cx="1591.26" cy="40.05" fill="rgba(40, 180, 99, 1)"></circle><circle r="5" cx="1543.01" cy="223.33" fill="rgba(40, 180, 99, 1)"></circle><circle r="5" cx="1546.87" cy="362.42" fill="rgba(40, 180, 99, 1)"></circle><circle r="5" cx="1596.28" cy="516.73" fill="rgba(40, 180, 99, 1)"></circle><circle r="5" cx="1550" cy="702.16" fill="rgba(40, 180, 99, 1)"></circle><path d="M-109.4 658.84L-109.4 658.84" stroke="hsl(145.3, 63.6%, 56.1%)" stroke-width="1.5"></path><path d="M-109.4 658.84L53.62 702.36" stroke="hsl(145.3, 63.6%, 56.1%)" stroke-width="1.5"></path><path d="M-109.4 658.84L111.54 547.06" stroke="hsl(145.3, 63.6%, 56.1%)" stroke-width="1.5"></path><path d="M362.91 693.34L362.91 693.34" stroke="hsl(145.3, 63.6%, 56.1%)" stroke-width="1.5"></path><path d="M362.91 693.34L254.67 673.13" stroke="hsl(145.3, 63.6%, 56.1%)" stroke-width="1.5"></path><path d="M362.91 693.34L378.66 555.11" stroke="hsl(145.3, 63.6%, 56.1%)" stroke-width="1.5"></path><path d="M362.91 693.34L258.01 560.57" stroke="hsl(145.3, 63.6%, 56.1%)" stroke-width="1.5"></path><path d="M362.91 693.34L561.68 668.48" stroke="hsl(145.3, 63.6%, 56.1%)" stroke-width="1.5"></path><path d="M962.82 394.64L962.82 394.64" stroke="hsl(145.3, 63.6%, 56.1%)" stroke-width="1.5"></path><path d="M962.82 394.64L1111.36 343.15" stroke="hsl(145.3, 63.6%, 56.1%)" stroke-width="1.5"></path><path d="M962.82 394.64L808.79 360.01" stroke="hsl(145.3, 63.6%, 56.1%)" stroke-width="1.5"></path><path d="M1241.94 -105.21L1241.94 -105.21" stroke="hsl(145.3, 63.6%, 56.1%)" stroke-width="1.5"></path><path d="M1241.94 -105.21L1281.71 56.1" stroke="hsl(145.3, 63.6%, 56.1%)" stroke-width="1.5"></path><path d="M1241.94 -105.21L1406.6 -81.8" stroke="hsl(145.3, 63.6%, 56.1%)" stroke-width="1.5"></path><path d="M1241.94 -105.21L1415.27 52.7" stroke="hsl(145.3, 63.6%, 56.1%)" stroke-width="1.5"></path><path d="M1577.51 220.11L1577.51 220.11" stroke="hsl(145.3, 63.6%, 56.1%)" stroke-width="1.5"></path><path d="M1577.51 220.11L1559.18 355.8" stroke="hsl(145.3, 63.6%, 56.1%)" stroke-width="1.5"></path><path d="M1577.51 220.11L1428.9 187.64" stroke="hsl(145.3, 63.6%, 56.1%)" stroke-width="1.5"></path><path d="M1577.51 220.11L1572.04 41.63" stroke="hsl(145.3, 63.6%, 56.1%)" stroke-width="1.5"></path><path d="M1577.51 220.11L1452.23 388.32" stroke="hsl(145.3, 63.6%, 56.1%)" stroke-width="1.5"></path><path d="M111.54 547.06L111.54 547.06" stroke="hsl(145.3, 63.6%, 56.1%)" stroke-width="1.5"></path><path d="M111.54 547.06L258.01 560.57" stroke="hsl(145.3, 63.6%, 56.1%)" stroke-width="1.5"></path><path d="M111.54 547.06L53.62 702.36" stroke="hsl(145.3, 63.6%, 56.1%)" stroke-width="1.5"></path><path d="M111.54 547.06L254.67 673.13" stroke="hsl(145.3, 63.6%, 56.1%)" stroke-width="1.5"></path><path d="M53.62 702.36L53.62 702.36" stroke="hsl(145.3, 63.6%, 56.1%)" stroke-width="1.5"></path><path d="M53.62 702.36L254.67 673.13" stroke="hsl(145.3, 63.6%, 56.1%)" stroke-width="1.5"></path><path d="M53.62 702.36L258.01 560.57" stroke="hsl(145.3, 63.6%, 56.1%)" stroke-width="1.5"></path><path d="M53.62 702.36L362.91 693.34" stroke="hsl(145.3, 63.6%, 56.1%)" stroke-width="1.5"></path><path d="M53.62 702.36L378.66 555.11" stroke="hsl(145.3, 63.6%, 56.1%)" stroke-width="1.5"></path><path d="M258.01 560.57L258.01 560.57" stroke="hsl(145.3, 63.6%, 56.1%)" stroke-width="1.5"></path><path d="M258.01 560.57L254.67 673.13" stroke="hsl(145.3, 63.6%, 56.1%)" stroke-width="1.5"></path><path d="M258.01 560.57L378.66 555.11" stroke="hsl(145.3, 63.6%, 56.1%)" stroke-width="1.5"></path><path d="M254.67 673.13L254.67 673.13" stroke="hsl(145.3, 63.6%, 56.1%)" stroke-width="1.5"></path><path d="M254.67 673.13L378.66 555.11" stroke="hsl(145.3, 63.6%, 56.1%)" stroke-width="1.5"></path><path d="M378.66 555.11L378.66 555.11" stroke="hsl(145.3, 63.6%, 56.1%)" stroke-width="1.5"></path><path d="M378.66 555.11L517 548.77" stroke="hsl(145.3, 63.6%, 56.1%)" stroke-width="1.5"></path><path d="M517 548.77L517 548.77" stroke="hsl(145.3, 63.6%, 56.1%)" stroke-width="1.5"></path><path d="M517 548.77L561.68 668.48" stroke="hsl(145.3, 63.6%, 56.1%)" stroke-width="1.5"></path><path d="M561.68 668.48L561.68 668.48" stroke="hsl(145.3, 63.6%, 56.1%)" stroke-width="1.5"></path><path d="M561.68 668.48L669.38 709.47" stroke="hsl(145.3, 63.6%, 56.1%)" stroke-width="1.5"></path><path d="M561.68 668.48L683.89 499.32" stroke="hsl(145.3, 63.6%, 56.1%)" stroke-width="1.5"></path><path d="M561.68 668.48L378.66 555.11" stroke="hsl(145.3, 63.6%, 56.1%)" stroke-width="1.5"></path><path d="M705.8 392.17L705.8 392.17" stroke="hsl(145.3, 63.6%, 56.1%)" stroke-width="1.5"></path><path d="M705.8 392.17L808.79 360.01" stroke="hsl(145.3, 63.6%, 56.1%)" stroke-width="1.5"></path><path d="M705.8 392.17L683.89 499.32" stroke="hsl(145.3, 63.6%, 56.1%)" stroke-width="1.5"></path><path d="M705.8 392.17L799.34 518.7" stroke="hsl(145.3, 63.6%, 56.1%)" stroke-width="1.5"></path><path d="M705.8 392.17L517 548.77" stroke="hsl(145.3, 63.6%, 56.1%)" stroke-width="1.5"></path><path d="M705.8 392.17L962.82 394.64" stroke="hsl(145.3, 63.6%, 56.1%)" stroke-width="1.5"></path><path d="M705.8 392.17L790.15 670.95" stroke="hsl(145.3, 63.6%, 56.1%)" stroke-width="1.5"></path><path d="M683.89 499.32L683.89 499.32" stroke="hsl(145.3, 63.6%, 56.1%)" stroke-width="1.5"></path><path d="M683.89 499.32L799.34 518.7" stroke="hsl(145.3, 63.6%, 56.1%)" stroke-width="1.5"></path><path d="M683.89 499.32L517 548.77" stroke="hsl(145.3, 63.6%, 56.1%)" stroke-width="1.5"></path><path d="M683.89 499.32L808.79 360.01" stroke="hsl(145.3, 63.6%, 56.1%)" stroke-width="1.5"></path><path d="M683.89 499.32L790.15 670.95" stroke="hsl(145.3, 63.6%, 56.1%)" stroke-width="1.5"></path><path d="M669.38 709.47L669.38 709.47" stroke="hsl(145.3, 63.6%, 56.1%)" stroke-width="1.5"></path><path d="M669.38 709.47L790.15 670.95" stroke="hsl(145.3, 63.6%, 56.1%)" stroke-width="1.5"></path><path d="M669.38 709.47L683.89 499.32" stroke="hsl(145.3, 63.6%, 56.1%)" stroke-width="1.5"></path><path d="M669.38 709.47L517 548.77" stroke="hsl(145.3, 63.6%, 56.1%)" stroke-width="1.5"></path><path d="M808.79 360.01L808.79 360.01" stroke="hsl(145.3, 63.6%, 56.1%)" stroke-width="1.5"></path><path d="M808.79 360.01L799.34 518.7" stroke="hsl(145.3, 63.6%, 56.1%)" stroke-width="1.5"></path><path d="M799.34 518.7L799.34 518.7" stroke="hsl(145.3, 63.6%, 56.1%)" stroke-width="1.5"></path><path d="M799.34 518.7L790.15 670.95" stroke="hsl(145.3, 63.6%, 56.1%)" stroke-width="1.5"></path><path d="M799.34 518.7L973.49 556.21" stroke="hsl(145.3, 63.6%, 56.1%)" stroke-width="1.5"></path><path d="M799.34 518.7L962.82 394.64" stroke="hsl(145.3, 63.6%, 56.1%)" stroke-width="1.5"></path><path d="M790.15 670.95L790.15 670.95" stroke="hsl(145.3, 63.6%, 56.1%)" stroke-width="1.5"></path><path d="M790.15 670.95L943.1 678.01" stroke="hsl(145.3, 63.6%, 56.1%)" stroke-width="1.5"></path><path d="M790.15 670.95L973.49 556.21" stroke="hsl(145.3, 63.6%, 56.1%)" stroke-width="1.5"></path><path d="M973.49 556.21L973.49 556.21" stroke="hsl(145.3, 63.6%, 56.1%)" stroke-width="1.5"></path><path d="M973.49 556.21L943.1 678.01" stroke="hsl(145.3, 63.6%, 56.1%)" stroke-width="1.5"></path><path d="M973.49 556.21L962.82 394.64" stroke="hsl(145.3, 63.6%, 56.1%)" stroke-width="1.5"></path><path d="M973.49 556.21L1155.46 546.27" stroke="hsl(145.3, 63.6%, 56.1%)" stroke-width="1.5"></path><path d="M973.49 556.21L1114.9 685.57" stroke="hsl(145.3, 63.6%, 56.1%)" stroke-width="1.5"></path><path d="M943.1 678.01L943.1 678.01" stroke="hsl(145.3, 63.6%, 56.1%)" stroke-width="1.5"></path><path d="M1110.85 223.16L1110.85 223.16" stroke="hsl(145.3, 63.6%, 56.1%)" stroke-width="1.5"></path><path d="M1110.85 223.16L1111.36 343.15" stroke="hsl(145.3, 63.6%, 56.1%)" stroke-width="1.5"></path><path d="M1110.85 223.16L1263.96 243.36" stroke="hsl(145.3, 63.6%, 56.1%)" stroke-width="1.5"></path><path d="M1110.85 223.16L1250.74 388.49" stroke="hsl(145.3, 63.6%, 56.1%)" stroke-width="1.5"></path><path d="M1110.85 223.16L962.82 394.64" stroke="hsl(145.3, 63.6%, 56.1%)" stroke-width="1.5"></path><path d="M1111.36 343.15L1111.36 343.15" stroke="hsl(145.3, 63.6%, 56.1%)" stroke-width="1.5"></path><path d="M1111.36 343.15L1250.74 388.49" stroke="hsl(145.3, 63.6%, 56.1%)" stroke-width="1.5"></path><path d="M1155.46 546.27L1155.46 546.27" stroke="hsl(145.3, 63.6%, 56.1%)" stroke-width="1.5"></path><path d="M1155.46 546.27L1278.97 519.72" stroke="hsl(145.3, 63.6%, 56.1%)" stroke-width="1.5"></path><path d="M1155.46 546.27L1114.9 685.57" stroke="hsl(145.3, 63.6%, 56.1%)" stroke-width="1.5"></path><path d="M1155.46 546.27L1251.22 689.99" stroke="hsl(145.3, 63.6%, 56.1%)" stroke-width="1.5"></path><path d="M1155.46 546.27L1250.74 388.49" stroke="hsl(145.3, 63.6%, 56.1%)" stroke-width="1.5"></path><path d="M1155.46 546.27L1111.36 343.15" stroke="hsl(145.3, 63.6%, 56.1%)" stroke-width="1.5"></path><path d="M1114.9 685.57L1114.9 685.57" stroke="hsl(145.3, 63.6%, 56.1%)" stroke-width="1.5"></path><path d="M1114.9 685.57L1251.22 689.99" stroke="hsl(145.3, 63.6%, 56.1%)" stroke-width="1.5"></path><path d="M1114.9 685.57L943.1 678.01" stroke="hsl(145.3, 63.6%, 56.1%)" stroke-width="1.5"></path><path d="M1114.9 685.57L1278.97 519.72" stroke="hsl(145.3, 63.6%, 56.1%)" stroke-width="1.5"></path><path d="M1114.9 685.57L1424.11 707.99" stroke="hsl(145.3, 63.6%, 56.1%)" stroke-width="1.5"></path><path d="M1281.71 56.1L1281.71 56.1" stroke="hsl(145.3, 63.6%, 56.1%)" stroke-width="1.5"></path><path d="M1281.71 56.1L1415.27 52.7" stroke="hsl(145.3, 63.6%, 56.1%)" stroke-width="1.5"></path><path d="M1263.96 243.36L1263.96 243.36" stroke="hsl(145.3, 63.6%, 56.1%)" stroke-width="1.5"></path><path d="M1263.96 243.36L1250.74 388.49" stroke="hsl(145.3, 63.6%, 56.1%)" stroke-width="1.5"></path><path d="M1263.96 243.36L1428.9 187.64" stroke="hsl(145.3, 63.6%, 56.1%)" stroke-width="1.5"></path><path d="M1250.74 388.49L1250.74 388.49" stroke="hsl(145.3, 63.6%, 56.1%)" stroke-width="1.5"></path><path d="M1250.74 388.49L1278.97 519.72" stroke="hsl(145.3, 63.6%, 56.1%)" stroke-width="1.5"></path><path d="M1278.97 519.72L1278.97 519.72" stroke="hsl(145.3, 63.6%, 56.1%)" stroke-width="1.5"></path><path d="M1278.97 519.72L1393.49 491.77" stroke="hsl(145.3, 63.6%, 56.1%)" stroke-width="1.5"></path><path d="M1278.97 519.72L1251.22 689.99" stroke="hsl(145.3, 63.6%, 56.1%)" stroke-width="1.5"></path><path d="M1278.97 519.72L1452.23 388.32" stroke="hsl(145.3, 63.6%, 56.1%)" stroke-width="1.5"></path><path d="M1251.22 689.99L1251.22 689.99" stroke="hsl(145.3, 63.6%, 56.1%)" stroke-width="1.5"></path><path d="M1406.6 -81.8L1406.6 -81.8" stroke="hsl(145.3, 63.6%, 56.1%)" stroke-width="1.5"></path><path d="M1406.6 -81.8L1415.27 52.7" stroke="hsl(145.3, 63.6%, 56.1%)" stroke-width="1.5"></path><path d="M1406.6 -81.8L1543.17 -102.18" stroke="hsl(145.3, 63.6%, 56.1%)" stroke-width="1.5"></path><path d="M1406.6 -81.8L1281.71 56.1" stroke="hsl(145.3, 63.6%, 56.1%)" stroke-width="1.5"></path><path d="M1406.6 -81.8L1572.04 41.63" stroke="hsl(145.3, 63.6%, 56.1%)" stroke-width="1.5"></path><path d="M1406.6 -81.8L1428.9 187.64" stroke="hsl(145.3, 63.6%, 56.1%)" stroke-width="1.5"></path><path d="M1415.27 52.7L1415.27 52.7" stroke="hsl(145.3, 63.6%, 56.1%)" stroke-width="1.5"></path><path d="M1428.9 187.64L1428.9 187.64" stroke="hsl(145.3, 63.6%, 56.1%)" stroke-width="1.5"></path><path d="M1428.9 187.64L1415.27 52.7" stroke="hsl(145.3, 63.6%, 56.1%)" stroke-width="1.5"></path><path d="M1452.23 388.32L1452.23 388.32" stroke="hsl(145.3, 63.6%, 56.1%)" stroke-width="1.5"></path><path d="M1452.23 388.32L1559.18 355.8" stroke="hsl(145.3, 63.6%, 56.1%)" stroke-width="1.5"></path><path d="M1452.23 388.32L1393.49 491.77" stroke="hsl(145.3, 63.6%, 56.1%)" stroke-width="1.5"></path><path d="M1393.49 491.77L1393.49 491.77" stroke="hsl(145.3, 63.6%, 56.1%)" stroke-width="1.5"></path><path d="M1424.11 707.99L1424.11 707.99" stroke="hsl(145.3, 63.6%, 56.1%)" stroke-width="1.5"></path><path d="M1424.11 707.99L1251.22 689.99" stroke="hsl(145.3, 63.6%, 56.1%)" stroke-width="1.5"></path><path d="M1424.11 707.99L1608.16 638.19" stroke="hsl(145.3, 63.6%, 56.1%)" stroke-width="1.5"></path><path d="M1424.11 707.99L1393.49 491.77" stroke="hsl(145.3, 63.6%, 56.1%)" stroke-width="1.5"></path><path d="M1424.11 707.99L1278.97 519.72" stroke="hsl(145.3, 63.6%, 56.1%)" stroke-width="1.5"></path><path d="M1543.17 -102.18L1543.17 -102.18" stroke="hsl(145.3, 63.6%, 56.1%)" stroke-width="1.5"></path><path d="M1543.17 -102.18L1572.04 41.63" stroke="hsl(145.3, 63.6%, 56.1%)" stroke-width="1.5"></path><path d="M1543.17 -102.18L1415.27 52.7" stroke="hsl(145.3, 63.6%, 56.1%)" stroke-width="1.5"></path><path d="M1543.17 -102.18L1241.94 -105.21" stroke="hsl(145.3, 63.6%, 56.1%)" stroke-width="1.5"></path><path d="M1572.04 41.63L1572.04 41.63" stroke="hsl(145.3, 63.6%, 56.1%)" stroke-width="1.5"></path><path d="M1572.04 41.63L1415.27 52.7" stroke="hsl(145.3, 63.6%, 56.1%)" stroke-width="1.5"></path><path d="M1572.04 41.63L1428.9 187.64" stroke="hsl(145.3, 63.6%, 56.1%)" stroke-width="1.5"></path><path d="M1572.04 41.63L1281.71 56.1" stroke="hsl(145.3, 63.6%, 56.1%)" stroke-width="1.5"></path><path d="M1559.18 355.8L1559.18 355.8" stroke="hsl(145.3, 63.6%, 56.1%)" stroke-width="1.5"></path><path d="M1559.18 355.8L1559.37 490.31" stroke="hsl(145.3, 63.6%, 56.1%)" stroke-width="1.5"></path><path d="M1559.18 355.8L1428.9 187.64" stroke="hsl(145.3, 63.6%, 56.1%)" stroke-width="1.5"></path><path d="M1559.18 355.8L1393.49 491.77" stroke="hsl(145.3, 63.6%, 56.1%)" stroke-width="1.5"></path><path d="M1559.18 355.8L1608.16 638.19" stroke="hsl(145.3, 63.6%, 56.1%)" stroke-width="1.5"></path><path d="M1559.37 490.31L1559.37 490.31" stroke="hsl(145.3, 63.6%, 56.1%)" stroke-width="1.5"></path><path d="M1559.37 490.31L1452.23 388.32" stroke="hsl(145.3, 63.6%, 56.1%)" stroke-width="1.5"></path><path d="M1608.16 638.19L1608.16 638.19" stroke="hsl(145.3, 63.6%, 56.1%)" stroke-width="1.5"></path><path d="M1608.16 638.19L1559.37 490.31" stroke="hsl(145.3, 63.6%, 56.1%)" stroke-width="1.5"></path><path d="M1608.16 638.19L1393.49 491.77" stroke="hsl(145.3, 63.6%, 56.1%)" stroke-width="1.5"></path><circle r="25" cx="-109.4" cy="658.84" fill="url(&quot;#SvgjsRadialGradient1011&quot;)"></circle><circle r="25" cx="362.91" cy="693.34" fill="url(&quot;#SvgjsRadialGradient1011&quot;)"></circle><circle r="25" cx="962.82" cy="394.64" fill="url(&quot;#SvgjsRadialGradient1011&quot;)"></circle><circle r="25" cx="1241.94" cy="-105.21" fill="url(&quot;#SvgjsRadialGradient1011&quot;)"></circle><circle r="25" cx="1577.51" cy="220.11" fill="url(&quot;#SvgjsRadialGradient1011&quot;)"></circle><circle r="5" cx="111.54" cy="547.06" fill="#94dab1"></circle><circle r="5" cx="53.62" cy="702.36" fill="#94dab1"></circle><circle r="5" cx="258.01" cy="560.57" fill="#94dab1"></circle><circle r="5" cx="254.67" cy="673.13" fill="#94dab1"></circle><circle r="5" cx="378.66" cy="555.11" fill="#94dab1"></circle><circle r="5" cx="517" cy="548.77" fill="#94dab1"></circle><circle r="5" cx="561.68" cy="668.48" fill="#94dab1"></circle><circle r="5" cx="705.8" cy="392.17" fill="#94dab1"></circle><circle r="5" cx="683.89" cy="499.32" fill="#94dab1"></circle><circle r="5" cx="669.38" cy="709.47" fill="#94dab1"></circle><circle r="5" cx="808.79" cy="360.01" fill="#94dab1"></circle><circle r="5" cx="799.34" cy="518.7" fill="#94dab1"></circle><circle r="5" cx="790.15" cy="670.95" fill="#94dab1"></circle><circle r="5" cx="973.49" cy="556.21" fill="#94dab1"></circle><circle r="5" cx="943.1" cy="678.01" fill="#94dab1"></circle><circle r="5" cx="1110.85" cy="223.16" fill="#94dab1"></circle><circle r="5" cx="1111.36" cy="343.15" fill="#94dab1"></circle><circle r="5" cx="1155.46" cy="546.27" fill="#94dab1"></circle><circle r="5" cx="1114.9" cy="685.57" fill="#94dab1"></circle><circle r="5" cx="1281.71" cy="56.1" fill="#94dab1"></circle><circle r="5" cx="1263.96" cy="243.36" fill="#94dab1"></circle><circle r="5" cx="1250.74" cy="388.49" fill="#94dab1"></circle><circle r="5" cx="1278.97" cy="519.72" fill="#94dab1"></circle><circle r="5" cx="1251.22" cy="689.99" fill="#94dab1"></circle><circle r="5" cx="1406.6" cy="-81.8" fill="#94dab1"></circle><circle r="5" cx="1415.27" cy="52.7" fill="#94dab1"></circle><circle r="5" cx="1428.9" cy="187.64" fill="#94dab1"></circle><circle r="5" cx="1452.23" cy="388.32" fill="#94dab1"></circle><circle r="5" cx="1393.49" cy="491.77" fill="#94dab1"></circle><circle r="5" cx="1424.11" cy="707.99" fill="#94dab1"></circle><circle r="5" cx="1543.17" cy="-102.18" fill="#94dab1"></circle><circle r="5" cx="1572.04" cy="41.63" fill="#94dab1"></circle><circle r="5" cx="1559.18" cy="355.8" fill="#94dab1"></circle><circle r="5" cx="1559.37" cy="490.31" fill="#94dab1"></circle><circle r="5" cx="1608.16" cy="638.19" fill="#94dab1"></circle></g><defs><mask id="SvgjsMask1010"><rect width="1440" height="560" fill="#ffffff"></rect></mask><radialGradient id="SvgjsRadialGradient1011"><stop stop-color="#ffffff" offset="0.1"></stop><stop stop-color="rgba(40, 180, 99, 1)" offset="0.2"></stop><stop stop-color="rgba(40, 180, 99, 0)" offset="1"></stop></radialGradient></defs></svg>