<svg xmlns="http://www.w3.org/2000/svg" width="256" height="256" viewBox="0 0 100 100"><rect width="100" height="100" rx="20" fill="#ffffff"></rect><path d="M17.77 74.61L17.77 74.61Q11.11 74.61 11.11 69.05L11.11 69.05Q11.11 65.21 17.11 51.30L17.11 51.30Q24.14 35.02 25.03 30.58L25.03 30.58Q17.40 30.58 11.59 32.83Q5.79 35.09 5.79 39.23L5.79 39.23Q5.79 40.34 6.38 41.23Q6.97 42.12 7.56 42.49L7.56 42.49Q8.75 43.23 10.23 43.97L10.23 43.97Q11.11 44.64 10.52 44.78L10.52 44.78Q10.30 44.78 10.00 44.71L10.00 44.71Q8.30 44.34 6.30 42.56Q4.31 40.79 4.23 38.49L4.23 38.49Q3.94 37.75 3.94 37.16L3.94 37.16Q3.94 33.61 7.23 31.17Q10.52 28.73 14.63 28.02Q18.73 27.32 21.25 27.32Q23.77 27.32 25.17 27.39L25.17 27.39Q25.10 26.88 24.73 26.28Q24.36 25.69 25.17 25.47L25.17 25.47Q25.25 25.47 25.39 25.47L25.39 25.47Q26.14 25.47 26.80 26.58L26.80 26.58L27.17 27.62Q31.39 28.21 34.20 29.47L34.20 29.47Q35.31 29.91 35.98 30.98Q36.64 32.05 35.53 31.98L35.53 31.98Q34.87 31.98 33.09 31.35Q31.32 30.72 27.25 30.58L27.25 30.58Q26.88 38.05 23.18 46.48L23.18 46.48Q16.07 63.06 16.07 68.91L16.07 68.91Q16.07 72.68 19.11 72.68L19.11 72.68Q22.80 72.68 29.61 67.50L29.61 67.50Q37.68 61.51 45.15 49.59L45.15 49.59Q46.12 48.04 48.78 43.67L48.78 43.67Q53.89 35.24 57.36 30.95L57.36 30.95Q59.58 28.21 62.36 26.80Q65.13 25.40 66.69 25.40Q68.24 25.40 69.05 25.80Q69.87 26.21 69.87 26.54Q69.87 26.88 69.50 26.88L69.50 26.88L68.68 26.80Q66.24 26.80 61.80 32.20L61.80 32.20Q58.99 35.61 54.00 42.34Q49.00 49.08 46.78 51.96L46.78 51.96Q37.31 63.88 30.43 69.24Q23.55 74.61 17.77 74.61ZM60.55 50.11L60.55 50.11Q60.55 50.63 59.73 52.37Q58.92 54.11 55.07 64.32L55.07 64.32Q57.73 61.06 61.80 56.77L61.80 56.77Q70.02 48.19 73.13 48.19L73.13 48.19Q73.79 48.19 74.42 48.56Q75.05 48.93 75.05 50.22Q75.05 51.52 74.23 53.11Q73.42 54.70 72.39 56.99Q71.35 59.29 70.98 59.88L70.98 59.88Q77.20 54.25 80.38 53.03Q83.56 51.81 84.59 51.81Q85.63 51.81 85.63 52.55L85.63 52.55Q85.63 53.00 84.52 54.70Q83.41 56.40 82.08 59.73Q80.75 63.06 80.60 64.39Q80.45 65.72 80.45 66.76Q80.45 67.80 81.04 68.46L81.04 68.46Q82.15 69.65 84.08 68.61Q86.00 67.58 89.44 64.47Q92.88 61.36 94.96 58.40L94.96 58.40Q95.25 58.03 95.66 58.21Q96.06 58.40 96.06 58.58Q96.06 58.77 95.92 58.99L95.92 58.99Q94.81 60.99 91.92 64.10L91.92 64.10Q87.19 69.20 84.00 70.39L84.00 70.39Q80.53 71.57 78.97 70.68Q77.42 69.80 77.05 68.69Q76.68 67.58 76.68 66.47L76.68 66.47Q76.68 62.99 78.05 59.51Q79.42 56.03 80.23 54.77L80.23 54.77Q77.42 55.96 75.42 57.73L75.42 57.73Q72.39 60.40 70.53 62.39L70.53 62.39L69.06 64.02Q68.39 65.65 66.72 65.87Q65.06 66.09 65.13 64.76L65.13 64.76Q65.28 63.36 67.87 58.47Q70.46 53.59 70.46 53.03Q70.46 52.48 69.87 52.48L69.87 52.48Q68.54 52.48 65.06 55.51L65.06 55.51Q62.77 57.66 58.29 63.62Q53.81 69.57 53.22 69.94L53.22 69.94Q50.56 71.28 49.89 71.28Q49.22 71.28 49.22 71.05Q49.22 70.83 49.45 70.39Q49.67 69.94 53.96 57.51L53.96 57.51Q52.33 60.03 51.00 61.36L51.00 61.36Q50.41 62.02 50.41 61.10Q50.41 60.17 50.93 59.51L50.93 59.51Q54.26 55.14 55.81 52.11L55.81 52.11Q56.25 49.52 57.59 49.08L57.59 49.08Q58.40 48.78 59.47 49.08Q60.55 49.37 60.55 50.11Z" fill="#00f144"></path></svg>